<?xml version="1.0" encoding="UTF-8"?>
<!DOCTYPE svg PUBLIC "-//W3C//DTD SVG 1.1//EN" "http://www.w3.org/Graphics/SVG/1.1/DTD/svg11.dtd">
<!-- Creator: CorelDRAW -->
<svg xmlns="http://www.w3.org/2000/svg" xml:space="preserve" width="19.3mm" height="19.3mm" version="1.1" style="shape-rendering:geometricPrecision; text-rendering:geometricPrecision; image-rendering:optimizeQuality; fill-rule:evenodd; clip-rule:evenodd"
viewBox="0 0 2018.06 2018.06"
 xmlns:xlink="http://www.w3.org/1999/xlink"
 xmlns:xodm="http://www.corel.com/coreldraw/odm/2003">
 <defs>
  <style type="text/css">
   <![CDATA[
    .str0 {stroke:#574D13;stroke-width:188.21;stroke-miterlimit:22.9256}
    .fil0 {fill:#F7D22E}
    .fil1 {fill:#574D13;fill-rule:nonzero}
   ]]>
  </style>
 </defs>
 <g id="Слой_x0020_1">
  <metadata id="CorelCorpID_0Corel-Layer"/>
  <polygon class="fil0 str0" points="94.11,94.11 1923.96,94.11 1923.96,1923.96 94.11,1923.96 "/>
  <path class="fil1" d="M510.37 393.77l545.31 0c138.71,0 243.06,24.81 313.01,74.44 69.95,49.63 104.94,127.66 104.94,234.08 0,145.9 -63.98,237.97 -191.94,276.24 71.75,15.54 127.36,49.92 166.82,103.14 39.46,53.21 59.19,119.88 59.19,200 0,110.02 -36.47,194.62 -109.41,253.82 -72.95,59.19 -173.4,88.79 -301.35,88.79l-586.57 0 0 -1230.52zm287 1015.26l224.22 0c65.77,0 114.5,-12.25 146.19,-36.76 31.68,-24.52 47.53,-64.88 47.53,-121.08 0,-55.01 -15.85,-94.77 -47.53,-119.29 -31.69,-24.51 -80.42,-36.77 -146.19,-36.77l-224.22 0 0 313.91zm204.49 -521.98c66.96,0 115.09,-10.47 144.39,-31.39 29.3,-20.93 43.95,-56.51 43.95,-106.73 0,-51.42 -14.35,-87.6 -43.05,-108.53 -28.7,-20.92 -77.14,-31.39 -145.29,-31.39l-204.49 0 0 278.03 204.49 0z"/>
 </g>
</svg>
