<svg width="26" height="25" viewBox="0 0 26 25" fill="none" xmlns="http://www.w3.org/2000/svg">
<path d="M8.21533 3.24786V6.49573H8.71747H9.21961V3.75V1.00427H16.7196H24.2196V12.5V23.9957H16.7196H9.21961V21.25V18.5043H8.71747H8.21533V21.7521V25H16.7089H25.2132V12.5V0H16.7196H8.21533V3.24786Z" fill="#62560E"/>
<path d="M2.15812 10.3419L0 12.5L2.1688 14.6688L4.34829 16.8483L4.70085 16.485L5.0641 16.1325L3.50427 14.5726L1.94444 13.0128H8.33333H14.7222V12.5V11.9978H8.33333H1.93376L3.48291 10.4487C4.33761 9.594 5.02137 8.87818 5.02137 8.84613C5.02137 8.76066 4.44444 8.19442 4.36966 8.19442C4.33761 8.18374 3.34402 9.15596 2.15812 10.3419Z" fill="#62560E"/>
</svg>
