<svg width="19" height="25" viewBox="0 0 19 25" fill="none" xmlns="http://www.w3.org/2000/svg">
<path d="M9.18445 14.3749C6.48318 14.3749 4.27979 12.1821 4.27979 9.48083C4.27979 6.77956 6.48318 4.57617 9.18445 4.57617C11.8857 4.57617 14.0891 6.77956 14.0891 9.48083C14.0891 12.1821 11.8857 14.3749 9.18445 14.3749ZM9.18445 5.36007C6.9069 5.36007 5.06368 7.21388 5.06368 9.48083C5.06368 11.7478 6.9069 13.6016 9.18445 13.6016C11.462 13.6016 13.3052 11.7584 13.3052 9.48083C13.3052 7.20329 11.462 5.36007 9.18445 5.36007Z" fill="#62560E"/>
<path d="M9.18432 25L8.8983 24.6822C5.45551 20.911 3.18856 18.4216 1.83263 16.2182C1.14407 15.0953 0.688559 14.0572 0.402542 12.9343C0.127119 11.8538 0 10.6674 0 9.18432C0 6.72669 0.95339 4.41737 2.69068 2.69068C4.41737 0.95339 6.72669 0 9.18432 0C11.6419 0 13.9513 0.95339 15.678 2.69068C17.4153 4.42797 18.3686 6.73729 18.3686 9.18432C18.3686 10.6674 18.2415 11.8538 17.9661 12.9343C17.6801 14.0572 17.2246 15.0953 16.536 16.2182C15.1801 18.4216 12.9131 20.911 9.47034 24.6822L9.18432 25ZM9.18432 0.783898C4.54449 0.783898 0.773305 4.55509 0.773305 9.19492C0.773305 14.5551 2.56356 16.589 9.18432 23.8453C15.8051 16.589 17.5953 14.5445 17.5953 9.19492C17.5953 4.55509 13.8242 0.783898 9.18432 0.783898Z" fill="#62560E"/>
</svg>
