<svg width="25" height="25" viewBox="0 0 25 25" fill="none" xmlns="http://www.w3.org/2000/svg">
<path d="M8.28877 0.2642C7.25135 0.612945 5.99162 1.24703 5.81166 1.51123C5.6317 1.77543 5.6317 1.92338 5.84342 2.40951C6.34096 3.51915 6.18217 4.51254 5.4094 5.32628C4.75307 6.02377 3.87444 6.3091 3.02757 6.10831C2.87937 6.07661 2.57238 5.96036 2.3289 5.86525C1.95839 5.70673 1.88429 5.68559 1.68316 5.749C1.38675 5.84411 1.27031 6.00263 0.846873 6.86921C0.423436 7.73578 0 8.96167 0 9.29985C0 9.62746 0.222304 9.88109 0.656326 10.029C1.39734 10.3038 1.87371 10.7265 2.20187 11.4135C2.35007 11.7411 2.39242 11.9101 2.41359 12.3434C2.45593 13.2417 2.13835 13.992 1.49261 14.5099C1.23855 14.7107 0.677498 14.9854 0.51871 14.9854C0.46578 14.9854 0.328163 15.0806 0.211718 15.1862C0.0317577 15.3659 0.0105858 15.4293 0.0105858 15.6618C0.0105858 16.2747 1.03742 18.7371 1.45027 19.0964C1.71492 19.3183 1.96898 19.3289 2.39242 19.1175C2.56179 19.033 2.88995 18.9273 3.13343 18.8745C4.45667 18.5997 5.82225 19.5403 6.10807 20.9247C6.22451 21.4848 6.17159 21.8969 5.89635 22.531C5.66346 23.07 5.66346 23.2602 5.88577 23.5244C6.28803 23.9788 8.93451 25.0673 9.42146 24.9828C9.69669 24.9299 9.919 24.6869 10.0566 24.2747C10.4165 23.2285 11.3904 22.5416 12.5231 22.5416C13.4759 22.5416 14.4286 23.1545 14.8097 24.0105C15.1378 24.7608 15.1696 24.8031 15.4025 24.9194C15.6248 25.025 15.646 25.025 16.0377 24.9299C17.128 24.6446 18.917 23.8097 19.1499 23.4927C19.3087 23.2708 19.2769 22.9431 19.0441 22.4147C18.8853 22.066 18.8641 21.9603 18.8641 21.3897C18.8641 20.7873 18.8747 20.7344 19.0652 20.3434C19.4569 19.5508 20.2085 18.9907 21.0554 18.8533C21.5741 18.7688 22.1351 18.8745 22.6856 19.1598C22.9714 19.3078 23.2255 19.3078 23.469 19.1704C23.7865 18.9696 24.644 17.1307 24.9192 16.0422C25.0251 15.6407 25.0251 15.609 24.9298 15.3976C24.824 15.1757 24.7604 15.1334 24.03 14.8058C23.0455 14.3725 22.4527 13.358 22.548 12.2589C22.6433 11.2127 23.3102 10.3567 24.3264 10.0185C25.0145 9.78598 25.1204 9.50064 24.8345 8.60236C24.6122 7.90487 24.0935 6.68955 23.8289 6.24569C23.6383 5.92865 23.3313 5.67502 23.1302 5.67502C23.0667 5.67502 22.8126 5.75957 22.5797 5.86525C22.3469 5.97093 21.9763 6.08717 21.7752 6.11888C20.7272 6.29853 19.6157 5.68559 19.1076 4.66049C18.8853 4.21664 18.8747 4.17436 18.8747 3.57199C18.8747 2.96961 18.8853 2.9062 19.0758 2.51519C19.3193 1.99735 19.3299 1.71202 19.1076 1.44782C18.7794 1.06737 16.2917 0 15.7201 0C15.3072 0 15.1484 0.147952 14.9261 0.760897C14.6827 1.41611 14.2169 1.91281 13.55 2.21928C13.0524 2.45178 12.2056 2.49405 11.6763 2.30383C10.8929 2.02906 10.353 1.49009 10.046 0.655217C9.71786 -0.0739761 9.47439 -0.126816 8.28877 0.2642ZM9.4638 0.908849C9.77079 1.8494 10.7659 2.73711 11.7292 2.95904C12.3749 3.10699 13.2959 3.00131 13.8675 2.71598C14.5768 2.35667 15.2543 1.60634 15.466 0.929985C15.5507 0.665785 15.593 0.612944 15.6989 0.612944C16.0482 0.612944 18.2819 1.53236 18.5783 1.79656C18.6735 1.88111 18.6735 1.91281 18.5148 2.26155C17.8161 3.75164 18.483 5.66445 19.9227 6.37251C20.7484 6.77409 21.7964 6.82693 22.5692 6.50989C22.7915 6.41478 23.0032 6.34081 23.0455 6.33024C23.0985 6.31967 23.2043 6.44649 23.3102 6.61557C23.6913 7.26022 24.4323 9.16247 24.3582 9.33155C24.3476 9.36326 24.21 9.43723 24.0724 9.47951C23.4584 9.65916 22.7279 10.2615 22.368 10.8851C21.6058 12.1743 21.8281 13.7173 22.9079 14.7529C23.3102 15.144 23.6913 15.3765 24.157 15.5244C24.2735 15.5667 24.3793 15.6301 24.3793 15.6829C24.3793 15.9683 23.4795 18.1558 23.1831 18.6103C23.1302 18.6737 23.0349 18.6525 22.6221 18.494C22.1563 18.3144 22.0504 18.2932 21.4471 18.2932C20.9072 18.2827 20.706 18.3144 20.3673 18.4306C19.2769 18.8111 18.5359 19.6776 18.2924 20.8613C18.176 21.4636 18.2289 22.0766 18.483 22.7001C18.5677 22.9009 18.6312 23.1122 18.6312 23.1439C18.6312 23.3236 15.8471 24.4861 15.6248 24.4015C15.5825 24.3804 15.5507 24.3276 15.5507 24.2853C15.5507 24.243 15.4448 23.9788 15.3072 23.7146C14.8838 22.8797 14.1004 22.2562 13.1795 22.0449C11.6551 21.6856 10.0778 22.531 9.49556 24.0105C9.42146 24.1902 9.34736 24.3593 9.3156 24.3804C9.22033 24.4755 7.90767 24 6.90201 23.5033C6.29862 23.1968 6.19276 23.0911 6.33037 22.9431C6.46799 22.7846 6.64795 22.1188 6.67971 21.6433C6.81733 19.4874 4.8801 17.8599 2.77351 18.3461C2.57238 18.3989 2.28656 18.494 2.14894 18.568C2.01132 18.6314 1.86312 18.6737 1.82078 18.6631C1.64082 18.5997 0.910388 16.9405 0.624569 15.9788L0.529295 15.6618L0.7516 15.5667C1.93722 15.0911 2.72058 14.2245 2.95347 13.1466C3.10167 12.4174 2.92171 11.4452 2.51945 10.8428C2.13835 10.2404 1.41851 9.66973 0.857459 9.50064C0.709256 9.45837 0.571639 9.39496 0.550467 9.35269C0.508124 9.23644 1.01625 7.82033 1.34441 7.15454C1.7996 6.22456 1.73609 6.2774 2.26538 6.49933C2.63589 6.65785 2.82644 6.70012 3.3028 6.72125C4.00147 6.75296 4.37198 6.67898 4.96479 6.39365C6.44682 5.67502 7.09256 3.79392 6.39389 2.24042C6.24569 1.89167 6.2351 1.88111 6.36213 1.79656C6.74322 1.49009 9.1674 0.517832 9.30501 0.602377C9.33677 0.602377 9.41087 0.750329 9.4638 0.908849Z" fill="#62560E"/>
<path d="M11.8245 7.20736C10.2366 7.42929 8.91337 8.2536 8.03474 9.58517C6.83854 11.4029 6.84912 13.6961 8.05592 15.4821C8.33115 15.8943 9.05099 16.6129 9.45326 16.8877C9.91904 17.2047 10.6812 17.5534 11.2105 17.7014C11.8351 17.8599 13.1583 17.8493 13.8147 17.6803C15.2755 17.2892 16.5564 16.2324 17.2445 14.8586C17.5938 14.1717 17.7314 13.5904 17.7632 12.6816C17.7844 11.9207 17.7738 11.7727 17.6468 11.2443C17.0434 8.92995 15.0955 7.31304 12.7561 7.18623C12.4385 7.16509 12.0256 7.17566 11.8245 7.20736ZM13.6241 7.89429C15.3602 8.34871 16.7152 9.73312 17.0963 11.4451C17.2551 12.1743 17.2021 13.3474 16.9798 13.992C16.44 15.5878 15.0744 16.7925 13.4124 17.1307C10.4907 17.7331 7.73834 15.5033 7.73834 12.5231C7.73834 10.3989 9.06158 8.59177 11.0517 7.9894C11.2846 7.91542 11.6128 7.84144 11.7822 7.80974C12.1738 7.73576 13.1583 7.78861 13.6241 7.89429Z" fill="#62560E"/>
</svg>
