<svg width="248" height="33" viewBox="0 0 248 33" fill="none" xmlns="http://www.w3.org/2000/svg">
<path d="M0 0.765175L4.65816 32.2252H19.766L35.2529 0.765175H22.5356L14.2271 21.0283L12.5273 0.765175H0.000295744H0ZM30.3418 27.781C33.3641 30.5668 39.2182 32.9357 45.8911 32.9357C54.7657 32.9357 61.88 28.7896 61.88 20.6715C61.88 15.0443 57.5371 13.5033 52.8771 12.1999C49.9814 11.3707 48.7869 10.8966 48.7869 9.77093C48.7869 8.64528 49.919 8.29018 51.2415 8.29018C53.1924 8.29018 56.8431 9.41582 58.9219 10.7778L64.3987 4.20108C61.8162 1.89083 55.962 -0.00537109 50.3608 -0.00537109C42.8692 -0.00537109 34.8115 3.84597 34.8115 11.6071C34.8115 17.2959 39.847 19.2508 43.4991 20.2577C46.7083 21.1456 47.9043 21.3233 47.9684 22.628C47.9684 23.5159 47.4006 24.2261 45.7026 24.2261C42.9315 24.2261 38.5883 22.2712 36.2586 20.7902L30.3421 27.7808L30.3418 27.781ZM93.1652 22.2126C89.0108 23.3969 85.8639 24.1088 83.2831 24.1088C80.2609 24.1088 78.5611 22.39 78.4347 20.9679C93.7951 20.1387 98.7041 16.465 98.7041 9.94834C98.7041 4.02311 93.6687 0.0546941 85.1075 0.0546941C73.0219 0.0546941 64.9642 8.17116 64.9642 19.8423C64.9642 27.8414 69.9997 32.9357 79.4419 32.9357C85.1073 32.9357 89.8916 31.5737 94.2348 29.5585L93.1649 22.2126H93.1652ZM78.4347 14.5102C78.7496 11.1329 81.2043 8.29018 83.9754 8.29018C85.8639 8.29018 86.8073 9.23841 86.8073 10.7192C86.8073 12.5553 85.1717 13.9774 78.4347 14.5102ZM100.404 0.765175L105.062 32.2252H120.17L135.657 0.765175H122.939L114.631 21.0283L112.931 0.765175H100.404H100.404ZM137.922 0.765175L132.319 32.2252H145.099L148.812 11.4897C149.631 10.7192 151.204 9.77093 152.715 9.77093C154.668 9.77093 155.296 10.6001 154.73 13.6809L151.457 32.2252H164.234L168.075 10.6001C169.271 3.72696 166.376 0.0546941 159.514 0.0546941C155.171 0.0546941 151.204 2.06824 148.938 4.02339L148.372 0.765175H137.922H137.922ZM201.061 0.765175H191.241L185.638 32.2252H198.418L201.753 13.5033C202.949 12.1412 205.027 11.0743 206.6 11.0743C208.049 11.0743 208.615 11.1933 210.064 11.4897L212.707 0.823852C211.762 0.351402 210.63 0.0549725 209.181 0.0549725C206.475 0.0549725 203.894 2.00984 201.879 4.6752L201.061 0.765175ZM241.977 32.2252L247.58 0.765175H234.865L231.088 21.8575C230.331 22.628 228.632 23.4572 227.122 23.4572C225.17 23.4572 224.604 22.3316 224.981 20.08L228.443 0.7649H215.601L211.699 22.509C210.566 29.0254 213.588 32.9354 220.638 32.9354C224.981 32.9354 228.443 31.277 230.899 28.6703L231.843 32.225H241.977L241.977 32.2252Z" fill="#FDD116"/>
<path d="M168.896 26.8932C168.896 30.3895 171.414 32.9358 175.757 32.9358C179.975 32.9358 182.492 30.3895 182.492 26.8932C182.492 23.2196 179.849 20.8506 175.757 20.8506C171.603 20.8506 168.896 23.2196 168.896 26.8932Z" fill="#D74134"/>
</svg>
